<svg width="358" height="206" viewBox="0 0 358 206" fill="none" xmlns="http://www.w3.org/2000/svg">
<path d="M292.578 26H336C336 26 335.5 39 340.5 44.5C347.388 52.0767 358 52 358 52V153C358 153 347.243 155.173 341.321 162.284C335.399 169.395 336 181 336 181H290.683C260.721 196.579 221.687 206 179 206C136.313 206 97.2794 196.579 67.3174 181H24C24 181 23.0524 170.369 16.5 162.5C9.94759 154.631 0 152.5 0 152.5V53C0 53 10.7572 51.8274 16.6789 44.7161C22.6005 37.6049 23 26 23 26H65.4225C95.6246 9.82533 135.407 0 179 0C222.593 0 262.375 9.82533 292.578 26Z" fill="#333E2C"/>
<path fill-rule="evenodd" clip-rule="evenodd" d="M28.4859 33.0793C28.4953 33.0271 28.5 33 28.5 33L71.5043 33C99.8069 17.476 137.551 8 179 8C220.449 8 258.193 17.476 286.496 33L329.514 33C329.514 33 329.51 33.1395 329.514 33.397C329.543 35.2736 329.996 43.4172 335.5 49.5C341.76 56.4174 350 58 350 58V146.5C350 146.5 342 148 336 155C330 162 328.5 173 328.5 173H286.496C258.193 188.524 220.449 198 179 198C137.551 198 99.8069 188.524 71.5043 173H29.5C29.5 173 27 162 22 156.5C16.2922 150.221 8 147.5 8 147.5V58C8 58 18.7538 53.6156 23 48C26.5673 43.2822 28.3138 34.0292 28.4859 33.0793ZM9 58.6608V146.797C9.21166 146.877 9.46782 146.977 9.7623 147.097C10.6534 147.461 11.8983 148.01 13.325 148.76C16.1695 150.256 19.7794 152.571 22.7399 155.827C25.3765 158.728 27.305 163.006 28.5648 166.471C29.2004 168.219 29.6767 169.79 29.9943 170.926C30.1124 171.348 30.2087 171.711 30.2833 172H71.7606L71.9852 172.123C100.12 187.555 137.694 197 179 197C220.306 197 257.88 187.555 286.015 172.123L286.239 172H327.65C327.701 171.717 327.766 171.371 327.849 170.971C328.088 169.805 328.471 168.178 329.045 166.329C330.188 162.647 332.113 157.999 335.241 154.349C338.36 150.71 341.993 148.507 344.836 147.215C346.259 146.568 347.491 146.146 348.372 145.885C348.607 145.815 348.817 145.757 349 145.709V58.7903C348.807 58.7397 348.583 58.678 348.332 58.6039C347.427 58.3371 346.159 57.9087 344.692 57.2582C341.762 55.9591 338.008 53.7618 334.759 50.171C331.472 46.5391 329.919 42.2314 329.183 38.8699C328.814 37.1843 328.647 35.7217 328.572 34.6769C328.554 34.4267 328.541 34.2002 328.532 34L286.239 34L286.015 33.8768C257.88 18.445 220.306 9 179 9C137.694 9 100.12 18.445 71.9852 33.8768L71.7606 34L29.3268 34C29.2782 34.2411 29.2183 34.5292 29.1469 34.8568C28.9217 35.8904 28.5817 37.3212 28.1218 38.9116C27.212 42.0574 25.7968 45.9593 23.7976 48.6031C21.5409 51.5877 17.6317 54.1712 14.3953 55.9789C12.7588 56.8929 11.2588 57.6277 10.1677 58.1342C9.69529 58.3535 9.29875 58.5304 9 58.6608Z" fill="#BDBC8E"/>
<path d="M179.567 33.3593C180.005 33.287 180.443 33.2146 180.99 33.1241C181.19 33.3774 181.373 33.6126 181.592 33.884C181.701 33.7754 181.829 33.7031 181.92 33.5945C182.941 32.292 184.236 31.8759 185.86 32.1834C186.717 32.3462 187.374 32.7261 187.903 33.3955C188.76 34.4991 188.669 35.6931 188.268 36.9052C188.195 37.1404 187.976 37.3755 187.757 37.5203C186.589 38.3525 185.367 39.1123 183.835 38.9856C183.744 38.9856 183.653 39.0037 183.58 39.0218C183.16 39.6369 183.16 39.6369 183.452 40.3968C183.78 40.4148 184.127 40.4148 184.492 40.4329C186.279 40.5596 188.067 40.6862 189.836 40.8129C189.909 40.8129 189.964 40.8309 190.037 40.849C191.204 41.1747 192.372 41.4822 193.521 41.826C194.779 42.224 195.819 43.02 196.895 43.7617C197.333 44.0692 197.734 44.4492 198.154 44.7929C198.646 45.1909 198.92 45.7336 199.047 46.3306C199.139 46.8372 199.248 47.3437 199.23 47.8503C199.193 49.0443 199.449 50.184 199.74 51.3238C199.868 51.8122 199.941 52.3188 199.978 52.8253C200.032 53.6394 199.704 54.2907 198.92 54.8877C198.993 54.6344 199.011 54.5259 199.066 54.4354C199.813 53.151 199.522 51.8665 198.92 50.6544C198.61 50.0031 198.372 49.4061 198.5 48.6825C198.61 48.0312 198.573 47.3618 198.281 46.7286C198.135 46.4392 197.989 46.1497 197.479 45.9869C197.57 46.4754 197.625 46.8734 197.716 47.2714C197.935 48.2302 197.752 49.1347 197.315 49.985C196.986 50.6182 196.567 51.2333 196.257 51.8846C196.038 52.3369 195.855 52.8434 195.819 53.3319C195.746 54.345 195.728 55.3581 196.147 56.3531C196.421 57.0044 196.567 57.728 196.694 58.4517C196.804 59.121 196.731 59.7904 196.403 60.3874C195.892 61.31 195.764 62.3231 195.618 63.3362C195.527 63.9513 195.436 64.5845 195.345 65.1453C194.998 65.5072 194.597 65.5614 194.196 65.5434C192.682 65.5072 191.168 65.6338 189.654 65.3986C188.851 65.272 188.012 65.4348 187.21 65.4529C186.316 65.471 185.404 65.4529 184.419 65.4529C184.273 64.2227 185.221 63.7342 185.969 62.9744C185.842 61.31 186.225 59.5552 185.769 57.7099C184.401 57.8366 183.179 57.9994 181.938 58.0536C180.753 58.1079 179.549 58.0717 178.327 58.0717C178.199 59.6457 178.035 61.1291 178.6 62.5764C178.983 63.5352 178.837 64.5302 178.801 65.5434C177.852 65.869 176.959 65.6157 176.065 65.5614C175.153 65.5072 174.241 65.5434 173.347 65.5434C172.836 64.476 173.511 63.9875 174.223 63.5895C174.35 62.8297 174.369 62.1422 174.077 61.3643C173.42 61.9613 173.292 62.7031 173.092 63.3724C172.891 64.0237 172.727 64.6931 172.563 65.3082C171.906 65.9052 171.158 65.7243 170.484 65.67C169.462 65.6157 168.441 65.4348 167.419 65.3082C167.255 65.2901 167.091 65.1996 166.836 65.1092C166.744 63.6257 168.003 63.1372 168.86 62.305C169.772 59.9713 170.228 57.1853 170.009 54.9601C169.28 55.34 168.605 55.7923 167.985 56.2807C167.675 56.534 167.364 56.7692 167.091 57.0405C166.489 57.6918 165.705 57.8366 164.866 57.927C163.151 58.1079 161.71 57.5471 160.433 56.4254C160.415 56.4074 160.397 56.3893 160.36 56.3712C158.719 55.2676 158.609 54.1822 158.427 52.7349C158.336 51.9208 158.317 51.1067 158.226 50.3107C158.19 49.8946 158.062 49.4966 157.989 49.0805C157.643 48.9538 157.369 48.8634 157.114 48.7729C156.767 47.597 157.114 46.7105 158.153 46.0954C158.427 45.9326 158.755 45.8964 159.065 45.9869C159.777 46.2221 160.087 46.6563 160.178 47.5065C160.233 47.9769 160.178 48.4654 160.123 48.9538C159.959 50.6182 160.05 52.2283 161.145 53.5852C161.436 53.947 161.838 54.2545 162.257 54.4716C162.786 54.7611 163.169 54.5802 163.644 53.9108C162.33 53.549 161.4 52.7168 160.78 51.559C160.579 51.179 160.579 51.1248 160.707 50.3468C161.601 50.98 162.44 51.6675 163.662 51.8303C163.625 51.5228 163.644 51.2876 163.589 51.0705C163.315 49.985 163.023 48.9177 162.768 47.8322C162.276 45.6974 162.914 43.8702 164.318 42.242C164.939 41.5365 165.759 41.2651 166.635 41.1385C167.766 40.9576 168.897 40.7405 170.046 40.5958C170.848 40.4872 171.669 40.4691 172.49 40.3968C173.201 40.3425 173.931 40.4872 174.733 40.252V38.9495C174.387 38.9314 174.059 38.9133 173.748 38.9133C172.052 38.9314 170.757 38.2258 169.973 36.7062C169.717 36.1996 169.462 35.675 169.28 35.1503C169.061 34.481 169.188 33.8297 169.681 33.3051C170.392 32.5633 171.304 32.1291 172.289 31.9301C173.329 31.7311 174.296 32.0206 175.062 32.7623C175.518 33.1965 175.919 33.7031 176.339 34.1734C176.448 34.3001 176.576 34.4086 176.795 34.6438C176.795 34.3182 176.795 34.1372 176.795 33.9744C176.776 33.5764 176.868 33.2327 177.251 33.0699C177.67 32.9071 178.09 32.9432 178.436 33.2689C178.637 33.4498 178.783 33.685 179.02 33.9563C179.293 33.685 179.567 33.3593 179.567 33.3593ZM161.71 51.6313C162.695 52.9158 164.556 53.4042 165.668 52.5721C165.084 52.4816 164.556 52.4273 164.045 52.3007C163.242 52.1198 162.476 51.8665 161.71 51.6313ZM184.692 49.5689C184.711 48.99 184.692 48.5377 184.784 47.9769C184.984 46.801 184.857 45.5165 184.692 44.3587C184.583 43.5989 184.364 42.821 184.091 42.0973C183.762 41.1928 183.033 40.7586 182.048 40.7586C180.132 40.7586 178.217 40.7586 176.302 40.7586C176.028 40.7586 175.773 40.7948 175.481 40.8129C175.518 40.9576 175.518 41.0661 175.554 41.1204C176.156 42.1154 176.302 43.2009 176.302 44.3225C176.284 45.8964 176.284 47.4523 176.302 49.0262C176.302 49.2614 176.339 49.4966 176.375 49.7679C177.086 49.7679 177.743 49.7679 178.4 49.7679C179.184 49.7679 179.968 49.7318 180.753 49.7679C182.048 49.8041 183.343 49.9308 184.692 49.5689ZM186.699 51.4504C186.772 51.2333 186.845 51.1248 186.827 51.0162C186.79 49.8403 186.699 48.6825 186.699 47.5065C186.699 46.2944 186.589 45.1004 186.334 43.9245C186.079 42.7848 185.732 41.645 184.802 40.8129C184.492 40.8129 184.2 40.8129 183.89 40.8129C184.2 41.3556 184.601 41.8079 184.765 42.3325C185.003 43.1285 185.148 43.9788 185.203 44.811C185.313 46.3125 185.331 47.8141 185.386 49.3157C185.404 49.6413 185.386 49.9669 185.386 50.3468C185.112 50.3468 184.93 50.3649 184.765 50.3468C184.109 50.3107 183.507 50.383 182.832 50.383C182.139 50.383 181.391 50.3288 180.68 50.3468C179.366 50.383 178.071 50.383 176.758 50.383C176.466 50.383 176.174 50.3468 175.956 50.3288C175.956 49.5328 175.974 48.8453 175.956 48.1578C175.901 46.7467 175.864 45.3356 175.737 43.9245C175.645 42.8029 175.281 41.7536 174.588 40.8671C174.241 40.8671 173.913 40.8671 173.493 40.8671C173.712 41.2289 173.894 41.4641 174.022 41.7174C174.223 42.1154 174.478 42.5134 174.569 42.9476C174.715 43.5265 174.77 44.1416 174.788 44.7386C174.825 45.8241 174.752 46.9095 174.825 47.995C174.898 49.0986 175.116 50.184 175.281 51.2876C179.129 51.378 182.887 51.5589 186.699 51.4504ZM190.949 57.6556C190.329 59.4828 190.475 61.0929 190.803 62.7211C191.095 62.1422 191.259 61.5452 191.496 60.9663C191.97 59.8266 191.496 58.8497 190.949 57.6556ZM179.804 38.5515C179.932 38.4791 180.023 38.461 180.023 38.4067C180.278 37.5384 180.534 36.6881 180.807 35.7293C179.786 35.2408 180.607 34.4629 180.625 33.7754C179.749 34.0287 179.567 34.1734 179.549 34.7704C179.531 35.8559 179.549 36.9414 179.567 38.0268C179.585 38.1896 179.713 38.3525 179.804 38.5515ZM177.342 35.8559C177.725 36.67 177.944 37.5745 178.491 38.3525C178.6 37.5384 178.673 36.7604 178.655 35.9644C178.655 35.3674 178.527 34.7704 178.473 34.1734C178.236 33.9201 178.09 33.5583 177.561 33.5945C177.688 34.0468 177.78 34.4267 177.907 34.8609C177.725 35.1865 177.561 35.4941 177.342 35.8559ZM157.788 47.9769C158.536 47.597 158.609 47.3256 158.153 46.6563C157.405 47.2352 157.369 47.3256 157.788 47.9769Z" fill="#F9AB00"/>
<path d="M179.549 33.3412L179.184 33.3051C178.929 33.287 178.746 33.0699 178.746 32.8166V32.292C178.053 31.8759 177.251 32.292 176.484 31.9663C177.032 30.9713 177.998 30.2838 178.308 29.126C177.05 29.0356 176.12 29.8497 175.062 30.1391C174.788 29.3974 174.788 26.539 175.062 25.7973C175.244 25.8334 175.463 25.8334 175.645 25.9058C176.339 26.1229 177.032 26.3762 177.725 26.5933C177.925 26.6656 178.163 26.6475 178.546 26.7018C178.181 26.0505 177.925 25.544 177.634 25.0736C177.324 24.6032 176.904 24.2052 176.886 23.4635L181.956 23.6806C181.884 23.952 181.884 24.1691 181.774 24.3138C181.336 24.9289 180.88 25.5259 180.424 26.1229C180.278 26.3219 180.114 26.5209 179.841 26.8646C181.318 26.7199 182.34 25.7611 183.744 25.7973C183.708 26.6114 183.635 27.3531 183.635 28.0767C183.635 28.7823 183.708 29.5059 183.744 30.1572C183.361 30.4286 183.124 30.2838 182.923 30.1029C182.212 29.4878 181.318 29.325 180.351 29.0717C180.37 29.325 180.333 29.5602 180.406 29.7049C180.734 30.32 181.081 30.917 181.446 31.4959C181.573 31.713 181.738 31.9301 181.993 32.292H179.914C179.786 32.7261 179.877 33.1784 179.585 33.3955C179.604 33.3412 179.549 33.3412 179.549 33.3412Z" fill="#F9AB00"/>
<path d="M171.448 78.4482H163.752V79.4482C163.752 82.1799 164.956 84.3714 167.059 85.8435C169.122 87.2879 171.987 88.0002 175.312 88.0002C178.81 88.0002 181.668 87.2023 183.677 85.7064C185.717 84.1881 186.808 82.0016 186.808 79.4482V78.4482H179.176V79.4482C179.176 80.8751 178.747 81.8632 178.117 82.4931C177.485 83.1248 176.544 83.5042 175.312 83.5042C173.971 83.5042 173.04 83.0733 172.437 82.424C171.825 81.7641 171.448 80.7657 171.448 79.4482V78.4482Z" fill="#F5D9AD"/>
<path d="M190.2 95.4711L195.064 94.3191V90.4802H181.561L167.709 123.32L167.736 119.968V95.4662L172.472 94.3142V90.4802H153.96V94.3166L158.76 95.4686V131.012L153.96 132.164V136H167.403L181.288 102.619V131.014L176.552 132.166V136H195.064V132.161L190.2 131.009V95.4711Z" fill="#F5D9AD"/>
<path fill-rule="evenodd" clip-rule="evenodd" d="M273.631 132.174L277.918 131.087L275.102 121.664H262.641L259.88 130.978L264.303 132.189V136H249.055V132.201L253.684 130.859L266.833 90.5783L274.57 89.473L287.202 131.041L291.503 132.183V136H273.631V132.174ZM273.484 116.336H264.195L268.948 100.327L270.66 106.79L273.484 116.336Z" fill="#F5D9AD"/>
<path fill-rule="evenodd" clip-rule="evenodd" d="M235.989 136L238.229 146.176H242.273V130.736H236.641V95.4686L241.441 94.3166V90.4802L207.953 90.4802V94.3379L213.969 95.6179V99.7362C213.969 107.757 213.348 114.85 212.175 120.327C211.589 123.066 210.87 125.374 210.038 127.182C209.273 128.844 208.441 130.019 207.585 130.736H203.217V146.176H207.261L209.501 136H235.989ZM213.786 130.736H227.729V95.7442H218.913V99.7362C218.913 106.72 218.431 113.693 217.41 119.486C216.9 122.382 216.251 125.005 215.451 127.196C214.965 128.525 214.414 129.724 213.786 130.736Z" fill="#F5D9AD"/>
<path d="M142.364 95.5546L146.507 94.2642V90.4802L132.027 90.4802V94.3065L136.513 95.443L129.987 113.588L128.145 108.106L123.296 95.1545L127.051 94.3331V90.4802H109.371V94.3348L113.481 95.2253L125.481 125.071L124.93 126.372L124.924 126.39C124.321 127.978 123.852 128.885 123.248 129.584H114.811V135.379L115.138 135.676C115.67 136.16 116.419 136.451 117.131 136.627C117.868 136.809 118.685 136.896 119.459 136.896C124.324 136.896 127.801 133.582 129.865 128.19L129.866 128.185C131.133 124.83 132.949 120.103 135.285 114.02C137.273 108.843 139.638 102.685 142.364 95.5546Z" fill="#F5D9AD"/>
<path d="M96.1626 105.408L93.5045 95.8391C92.2294 95.1074 90.3684 94.5922 88.0267 94.5922C85.0464 94.5922 82.5132 96.1282 80.6766 99.1941C78.8186 102.296 77.6987 106.944 77.6987 112.984C77.6987 118.891 78.619 123.626 80.3838 126.848C82.1166 130.011 84.6394 131.696 88.0267 131.696C90.4098 131.696 92.6362 131.048 94.4343 129.69L96.7793 120.176H101.123V133.442L100.57 133.719C96.7439 135.632 91.9835 136.896 88.0267 136.896C82.1116 136.896 77.1028 134.782 73.5855 130.754C70.0811 126.741 68.1467 120.931 68.1467 113.688C68.1467 106.564 69.8775 100.543 73.2682 96.2816C76.6821 91.9908 81.701 89.5842 88.0267 89.5842C92.4998 89.5842 96.5014 90.7871 99.9568 92.6478L100.483 92.9309L100.483 105.408H96.1626Z" fill="#F5D9AD"/>
<path d="M250.055 166V164.725L249.93 164.85C249.513 165.267 249.03 165.592 248.48 165.825C247.947 166.058 247.297 166.175 246.53 166.175C245.947 166.175 245.447 166.108 245.03 165.975C244.613 165.842 244.272 165.658 244.005 165.425C243.738 165.175 243.538 164.892 243.405 164.575C243.288 164.258 243.23 163.925 243.23 163.575C243.23 163.008 243.38 162.508 243.68 162.075C243.997 161.642 244.447 161.258 245.03 160.925C245.613 160.592 246.322 160.292 247.155 160.025C248.005 159.742 248.972 159.467 250.055 159.2C250.022 158.55 249.888 158.025 249.655 157.625C249.422 157.225 249.147 156.917 248.83 156.7C248.513 156.467 248.18 156.317 247.83 156.25C247.48 156.167 247.18 156.125 246.93 156.125C246.497 156.125 246.113 156.192 245.78 156.325C245.447 156.442 245.155 156.608 244.905 156.825C244.655 157.025 244.447 157.258 244.28 157.525C244.13 157.792 244.013 158.058 243.93 158.325H243.705V156.375C243.855 156.375 244.03 156.325 244.23 156.225C244.43 156.108 244.663 155.983 244.93 155.85C245.213 155.717 245.547 155.6 245.93 155.5C246.33 155.383 246.805 155.325 247.355 155.325C248.272 155.325 249.013 155.442 249.58 155.675C250.147 155.908 250.58 156.217 250.88 156.6C251.197 156.983 251.405 157.425 251.505 157.925C251.605 158.408 251.655 158.908 251.655 159.425V164.375C251.655 164.708 251.738 165.025 251.905 165.325C252.072 165.608 252.297 165.75 252.58 165.75V166H250.055ZM250.055 163.625V160.05L249.805 160.1C249.405 160.2 248.913 160.333 248.33 160.5C247.763 160.667 247.222 160.883 246.705 161.15C246.188 161.417 245.747 161.733 245.38 162.1C245.013 162.467 244.83 162.892 244.83 163.375C244.83 163.908 245.047 164.35 245.48 164.7C245.913 165.05 246.48 165.225 247.18 165.225C247.73 165.225 248.213 165.108 248.63 164.875C249.047 164.625 249.43 164.308 249.78 163.925L250.055 163.625Z" fill="#F5D9AD"/>
<path d="M235.769 155.325C236.602 155.325 237.352 155.467 238.019 155.75C238.702 156.017 239.277 156.392 239.744 156.875C240.227 157.342 240.594 157.9 240.844 158.55C241.094 159.2 241.219 159.908 241.219 160.675C241.219 161.492 241.077 162.242 240.794 162.925C240.511 163.592 240.119 164.167 239.619 164.65C239.119 165.133 238.527 165.508 237.844 165.775C237.161 166.042 236.419 166.175 235.619 166.175C234.769 166.175 234.011 166.017 233.344 165.7C232.677 165.367 232.111 164.917 231.644 164.35C231.177 163.783 230.819 163.117 230.569 162.35C230.319 161.567 230.194 160.725 230.194 159.825C230.194 159.308 230.219 158.833 230.269 158.4C230.336 157.967 230.427 157.55 230.544 157.15C230.677 156.733 230.836 156.333 231.019 155.95C231.202 155.567 231.419 155.167 231.669 154.75C232.369 153.65 233.244 152.783 234.294 152.15C235.361 151.517 236.444 151.2 237.544 151.2H240.719L239.744 152.8H237.144C236.611 152.8 236.077 152.9 235.544 153.1C235.011 153.283 234.502 153.567 234.019 153.95C233.552 154.317 233.136 154.767 232.769 155.3C232.402 155.833 232.111 156.442 231.894 157.125C232.344 156.575 232.861 156.142 233.444 155.825C234.044 155.492 234.819 155.325 235.769 155.325ZM235.919 165.325C236.536 165.292 237.077 165.15 237.544 164.9C238.011 164.633 238.402 164.3 238.719 163.9C239.036 163.483 239.269 163.025 239.419 162.525C239.586 162.008 239.669 161.483 239.669 160.95C239.669 160.333 239.569 159.742 239.369 159.175C239.169 158.592 238.886 158.083 238.519 157.65C238.152 157.217 237.711 156.867 237.194 156.6C236.694 156.333 236.136 156.2 235.519 156.2C234.919 156.2 234.386 156.333 233.919 156.6C233.452 156.85 233.061 157.183 232.744 157.6C232.427 158.017 232.186 158.492 232.019 159.025C231.869 159.558 231.794 160.092 231.794 160.625C231.794 161.158 231.886 161.708 232.069 162.275C232.269 162.825 232.544 163.325 232.894 163.775C233.261 164.225 233.694 164.6 234.194 164.9C234.711 165.183 235.286 165.325 235.919 165.325Z" fill="#F5D9AD"/>
<path d="M223.636 160.05C224.403 160.05 225.07 160.125 225.636 160.275C226.22 160.425 226.695 160.633 227.061 160.9C227.445 161.167 227.728 161.483 227.911 161.85C228.095 162.2 228.186 162.583 228.186 163C228.186 163.417 228.095 163.808 227.911 164.175C227.728 164.542 227.436 164.858 227.036 165.125C226.653 165.392 226.17 165.608 225.586 165.775C225.003 165.925 224.311 166 223.511 166H219.236V165.75C219.37 165.75 219.486 165.708 219.586 165.625C219.686 165.525 219.77 165.408 219.836 165.275C219.92 165.125 219.978 164.975 220.011 164.825C220.045 164.658 220.061 164.508 220.061 164.375V157.05C220.061 156.933 220.045 156.8 220.011 156.65C219.978 156.5 219.92 156.358 219.836 156.225C219.77 156.092 219.686 155.983 219.586 155.9C219.486 155.8 219.37 155.75 219.236 155.75V155.5H222.511V155.75C222.261 155.75 222.061 155.908 221.911 156.225C221.761 156.525 221.686 156.8 221.686 157.05V160.05H223.636ZM223.461 165.175C224.561 165.175 225.353 165 225.836 164.65C226.336 164.283 226.586 163.833 226.586 163.3C226.586 163 226.52 162.708 226.386 162.425C226.253 162.125 226.045 161.867 225.761 161.65C225.495 161.417 225.161 161.233 224.761 161.1C224.361 160.95 223.903 160.875 223.386 160.875H221.686V165.175H223.461Z" fill="#F5D9AD"/>
<path d="M217.764 165.175V168.25H217.514C217.48 168.05 217.422 167.817 217.339 167.55C217.255 167.3 217.139 167.058 216.989 166.825C216.839 166.592 216.655 166.392 216.439 166.225C216.239 166.075 216.005 166 215.739 166H207.789C207.522 166 207.28 166.075 207.064 166.225C206.847 166.392 206.655 166.592 206.489 166.825C206.339 167.058 206.214 167.3 206.114 167.55C206.03 167.817 205.98 168.05 205.964 168.25H205.714V165.175H206.664C206.764 165.175 206.855 165.133 206.939 165.05C207.039 164.967 207.13 164.867 207.214 164.75C207.314 164.633 207.405 164.508 207.489 164.375C207.572 164.225 207.647 164.092 207.714 163.975C207.964 163.408 208.264 162.733 208.614 161.95C208.98 161.167 209.347 160.358 209.714 159.525C210.097 158.692 210.464 157.883 210.814 157.1C211.164 156.3 211.464 155.617 211.714 155.05L215.939 164.275C216.072 164.558 216.197 164.783 216.314 164.95C216.43 165.1 216.589 165.175 216.789 165.175H217.764ZM208.039 165.175H214.539L211.289 158.05L208.039 165.175Z" fill="#F5D9AD"/>
<path d="M201.813 166V164.725L201.688 164.85C201.271 165.267 200.788 165.592 200.238 165.825C199.705 166.058 199.055 166.175 198.288 166.175C197.705 166.175 197.205 166.108 196.788 165.975C196.371 165.842 196.03 165.658 195.763 165.425C195.496 165.175 195.296 164.892 195.163 164.575C195.046 164.258 194.988 163.925 194.988 163.575C194.988 163.008 195.138 162.508 195.438 162.075C195.755 161.642 196.205 161.258 196.788 160.925C197.371 160.592 198.08 160.292 198.913 160.025C199.763 159.742 200.73 159.467 201.813 159.2C201.78 158.55 201.646 158.025 201.413 157.625C201.18 157.225 200.905 156.917 200.588 156.7C200.271 156.467 199.938 156.317 199.588 156.25C199.238 156.167 198.938 156.125 198.688 156.125C198.255 156.125 197.871 156.192 197.538 156.325C197.205 156.442 196.913 156.608 196.663 156.825C196.413 157.025 196.205 157.258 196.038 157.525C195.888 157.792 195.771 158.058 195.688 158.325H195.463V156.375C195.613 156.375 195.788 156.325 195.988 156.225C196.188 156.108 196.421 155.983 196.688 155.85C196.971 155.717 197.305 155.6 197.688 155.5C198.088 155.383 198.563 155.325 199.113 155.325C200.03 155.325 200.771 155.442 201.338 155.675C201.905 155.908 202.338 156.217 202.638 156.6C202.955 156.983 203.163 157.425 203.263 157.925C203.363 158.408 203.413 158.908 203.413 159.425V164.375C203.413 164.708 203.496 165.025 203.663 165.325C203.83 165.608 204.055 165.75 204.338 165.75V166H201.813ZM201.813 163.625V160.05L201.563 160.1C201.163 160.2 200.671 160.333 200.088 160.5C199.521 160.667 198.98 160.883 198.463 161.15C197.946 161.417 197.505 161.733 197.138 162.1C196.771 162.467 196.588 162.892 196.588 163.375C196.588 163.908 196.805 164.35 197.238 164.7C197.671 165.05 198.238 165.225 198.938 165.225C199.488 165.225 199.971 165.108 200.388 164.875C200.805 164.625 201.188 164.308 201.538 163.925L201.813 163.625Z" fill="#F5D9AD"/>
<path d="M193.549 165.1C193.416 165.1 193.291 165.133 193.174 165.2C193.058 165.25 192.924 165.317 192.774 165.4C192.491 165.567 192.116 165.742 191.649 165.925C191.183 166.092 190.599 166.175 189.899 166.175C189.049 166.175 188.266 166.042 187.549 165.775C186.849 165.492 186.241 165.108 185.724 164.625C185.208 164.125 184.808 163.55 184.524 162.9C184.241 162.233 184.099 161.517 184.099 160.75C184.099 160.033 184.224 159.35 184.474 158.7C184.741 158.05 185.116 157.475 185.599 156.975C186.083 156.475 186.674 156.075 187.374 155.775C188.091 155.475 188.899 155.325 189.799 155.325C190.416 155.325 190.916 155.4 191.299 155.55C191.683 155.683 192.008 155.817 192.274 155.95C192.424 156.033 192.566 156.1 192.699 156.15C192.849 156.2 192.999 156.225 193.149 156.225V158.125H192.899C192.816 157.808 192.666 157.533 192.449 157.3C192.233 157.05 191.983 156.842 191.699 156.675C191.416 156.508 191.108 156.383 190.774 156.3C190.441 156.217 190.116 156.175 189.799 156.175C189.116 156.175 188.516 156.3 187.999 156.55C187.483 156.783 187.058 157.1 186.724 157.5C186.391 157.883 186.141 158.325 185.974 158.825C185.808 159.325 185.724 159.842 185.724 160.375C185.724 160.992 185.816 161.6 185.999 162.2C186.199 162.783 186.474 163.308 186.824 163.775C187.191 164.242 187.633 164.617 188.149 164.9C188.683 165.183 189.283 165.325 189.949 165.325C190.416 165.325 190.849 165.258 191.249 165.125C191.649 164.992 191.991 164.817 192.274 164.6C192.574 164.383 192.808 164.15 192.974 163.9C193.158 163.633 193.266 163.383 193.299 163.15H193.549V165.1Z" fill="#F5D9AD"/>
<path d="M178.266 169.575C178.032 170.275 177.732 170.75 177.366 171C177.016 171.25 176.649 171.375 176.266 171.375C176.016 171.375 175.791 171.333 175.591 171.25C175.391 171.167 175.216 171.075 175.066 170.975C174.916 170.875 174.799 170.783 174.716 170.7C174.649 170.617 174.616 170.575 174.616 170.575L175.441 168.55C175.507 168.817 175.591 169.042 175.691 169.225C175.774 169.392 175.891 169.542 176.041 169.675C176.191 169.808 176.374 169.875 176.591 169.875C176.991 169.875 177.307 169.583 177.541 169L178.741 165.925L174.741 156.825C174.607 156.542 174.466 156.292 174.316 156.075C174.182 155.858 173.949 155.75 173.616 155.75V155.5H176.841V155.75C176.774 155.75 176.691 155.808 176.591 155.925C176.491 156.042 176.441 156.192 176.441 156.375C176.441 156.508 176.474 156.642 176.541 156.775L179.616 163.85L182.566 156.625C182.616 156.508 182.641 156.4 182.641 156.3C182.641 156.133 182.582 156 182.466 155.9C182.366 155.8 182.257 155.75 182.141 155.75V155.5H184.566V155.75C184.299 155.75 184.066 155.867 183.866 156.1C183.682 156.317 183.532 156.567 183.416 156.85L178.266 169.575Z" fill="#F5D9AD"/>
<path d="M166.419 160.85V159.6H172.094V160.85H166.419Z" fill="#F5D9AD"/>
<path d="M163.612 164.375C163.612 164.508 163.629 164.658 163.662 164.825C163.712 164.975 163.77 165.117 163.837 165.25C163.904 165.383 163.987 165.5 164.087 165.6C164.204 165.7 164.312 165.75 164.412 165.75V166H161.212V165.75C161.329 165.75 161.437 165.708 161.537 165.625C161.637 165.525 161.72 165.408 161.787 165.275C161.854 165.125 161.904 164.975 161.937 164.825C161.97 164.658 161.987 164.508 161.987 164.375V158.375L156.037 164.2V164.375C156.037 164.508 156.054 164.658 156.087 164.825C156.12 164.975 156.17 165.117 156.237 165.25C156.304 165.383 156.379 165.5 156.462 165.6C156.562 165.7 156.67 165.75 156.787 165.75V166H153.612V165.75C153.729 165.75 153.837 165.708 153.937 165.625C154.037 165.525 154.12 165.408 154.187 165.275C154.254 165.125 154.304 164.975 154.337 164.825C154.37 164.658 154.387 164.508 154.387 164.375V157.05C154.387 156.933 154.37 156.8 154.337 156.65C154.304 156.5 154.254 156.358 154.187 156.225C154.12 156.092 154.037 155.983 153.937 155.9C153.837 155.8 153.729 155.75 153.612 155.75V155.5H156.787V155.75C156.654 155.75 156.537 155.8 156.437 155.9C156.354 155.983 156.279 156.092 156.212 156.225C156.162 156.358 156.12 156.5 156.087 156.65C156.054 156.8 156.037 156.933 156.037 157.05V163.025L161.987 157.2V157.05C161.987 156.933 161.97 156.8 161.937 156.65C161.904 156.5 161.854 156.358 161.787 156.225C161.72 156.092 161.637 155.983 161.537 155.9C161.437 155.8 161.329 155.75 161.212 155.75V155.5H164.412V155.75C164.279 155.75 164.154 155.8 164.037 155.9C163.937 155.983 163.854 156.092 163.787 156.225C163.737 156.358 163.695 156.5 163.662 156.65C163.629 156.8 163.612 156.933 163.612 157.05V164.375ZM161.687 152.125C161.687 152.392 161.62 152.683 161.487 153C161.354 153.3 161.162 153.583 160.912 153.85C160.662 154.1 160.362 154.308 160.012 154.475C159.679 154.642 159.304 154.725 158.887 154.725C158.504 154.725 158.137 154.65 157.787 154.5C157.454 154.333 157.162 154.125 156.912 153.875C156.662 153.625 156.462 153.35 156.312 153.05C156.162 152.733 156.087 152.425 156.087 152.125H156.237C156.254 152.225 156.304 152.367 156.387 152.55C156.487 152.717 156.637 152.892 156.837 153.075C157.037 153.258 157.295 153.417 157.612 153.55C157.945 153.683 158.362 153.75 158.862 153.75C159.379 153.75 159.804 153.683 160.137 153.55C160.47 153.417 160.737 153.258 160.937 153.075C161.137 152.892 161.279 152.717 161.362 152.55C161.445 152.367 161.504 152.225 161.537 152.125H161.687Z" fill="#F5D9AD"/>
<path d="M142.828 160.95C142.895 161.533 143.036 162.092 143.253 162.625C143.47 163.142 143.753 163.6 144.103 164C144.47 164.4 144.911 164.725 145.428 164.975C145.945 165.208 146.545 165.325 147.228 165.325C147.595 165.325 147.978 165.275 148.378 165.175C148.795 165.058 149.178 164.9 149.528 164.7C149.878 164.5 150.186 164.258 150.453 163.975C150.736 163.675 150.928 163.342 151.028 162.975H151.253V164.85C151.153 164.85 151.036 164.883 150.903 164.95C150.786 165.017 150.645 165.1 150.478 165.2C150.145 165.4 149.695 165.617 149.128 165.85C148.561 166.067 147.811 166.175 146.878 166.175C146.128 166.175 145.411 166.067 144.728 165.85C144.061 165.633 143.47 165.3 142.953 164.85C142.436 164.4 142.02 163.825 141.703 163.125C141.403 162.425 141.253 161.592 141.253 160.625C141.253 160.008 141.353 159.383 141.553 158.75C141.77 158.117 142.086 157.55 142.503 157.05C142.936 156.533 143.486 156.117 144.153 155.8C144.82 155.483 145.62 155.325 146.553 155.325C147.386 155.325 148.111 155.467 148.728 155.75C149.361 156.033 149.878 156.425 150.278 156.925C150.695 157.425 151.003 158.017 151.203 158.7C151.403 159.383 151.503 160.133 151.503 160.95H142.828ZM146.453 156.15C145.87 156.15 145.361 156.267 144.928 156.5C144.511 156.733 144.153 157.033 143.853 157.4C143.553 157.767 143.32 158.183 143.153 158.65C142.986 159.117 142.878 159.583 142.828 160.05H149.953C149.936 159.567 149.845 159.092 149.678 158.625C149.528 158.158 149.311 157.742 149.028 157.375C148.745 157.008 148.386 156.717 147.953 156.5C147.52 156.267 147.02 156.15 146.453 156.15Z" fill="#F5D9AD"/>
<path d="M138.757 157.95C138.757 158.35 138.582 158.783 138.232 159.25C137.882 159.7 137.407 160.058 136.807 160.325C137.74 160.525 138.407 160.875 138.807 161.375C139.223 161.858 139.432 162.375 139.432 162.925C139.432 163.442 139.307 163.9 139.057 164.3C138.807 164.7 138.465 165.033 138.032 165.3C137.615 165.567 137.132 165.767 136.582 165.9C136.048 166.033 135.49 166.1 134.907 166.1C134.357 166.1 133.865 166.05 133.432 165.95C132.998 165.833 132.623 165.717 132.307 165.6C131.99 165.467 131.723 165.35 131.507 165.25C131.307 165.133 131.148 165.075 131.032 165.075V163.05H131.257C131.29 163.4 131.407 163.717 131.607 164C131.807 164.267 132.057 164.5 132.357 164.7C132.673 164.883 133.023 165.025 133.407 165.125C133.807 165.225 134.215 165.275 134.632 165.275C135.015 165.275 135.39 165.233 135.757 165.15C136.14 165.067 136.473 164.942 136.757 164.775C137.057 164.592 137.298 164.367 137.482 164.1C137.665 163.833 137.757 163.525 137.757 163.175C137.757 162.808 137.657 162.483 137.457 162.2C137.257 161.9 136.99 161.65 136.657 161.45C136.34 161.25 135.982 161.1 135.582 161C135.198 160.9 134.815 160.85 134.432 160.85H133.632V160.05H134.507C134.857 160.05 135.19 159.992 135.507 159.875C135.84 159.758 136.123 159.608 136.357 159.425C136.59 159.242 136.773 159.033 136.907 158.8C137.057 158.55 137.132 158.3 137.132 158.05C137.132 157.75 137.048 157.483 136.882 157.25C136.732 157.017 136.523 156.817 136.257 156.65C135.99 156.483 135.69 156.358 135.357 156.275C135.04 156.175 134.707 156.125 134.357 156.125C134.04 156.125 133.732 156.167 133.432 156.25C133.132 156.317 132.857 156.433 132.607 156.6C132.373 156.767 132.173 156.975 132.007 157.225C131.857 157.475 131.757 157.775 131.707 158.125H131.482V156.175C131.615 156.175 131.74 156.158 131.857 156.125C131.973 156.075 132.107 156.008 132.257 155.925C132.523 155.792 132.848 155.667 133.232 155.55C133.615 155.417 134.098 155.35 134.682 155.35C135.982 155.35 136.982 155.583 137.682 156.05C138.398 156.517 138.757 157.15 138.757 157.95Z" fill="#F5D9AD"/>
<path d="M124.091 169.575C123.857 170.275 123.557 170.75 123.191 171C122.841 171.25 122.474 171.375 122.091 171.375C121.841 171.375 121.616 171.333 121.416 171.25C121.216 171.167 121.041 171.075 120.891 170.975C120.741 170.875 120.624 170.783 120.541 170.7C120.474 170.617 120.441 170.575 120.441 170.575L121.266 168.55C121.332 168.817 121.416 169.042 121.516 169.225C121.599 169.392 121.716 169.542 121.866 169.675C122.016 169.808 122.199 169.875 122.416 169.875C122.816 169.875 123.132 169.583 123.366 169L124.566 165.925L120.566 156.825C120.432 156.542 120.291 156.292 120.141 156.075C120.007 155.858 119.774 155.75 119.441 155.75V155.5H122.666V155.75C122.599 155.75 122.516 155.808 122.416 155.925C122.316 156.042 122.266 156.192 122.266 156.375C122.266 156.508 122.299 156.642 122.366 156.775L125.441 163.85L128.391 156.625C128.441 156.508 128.466 156.4 128.466 156.3C128.466 156.133 128.407 156 128.291 155.9C128.191 155.8 128.082 155.75 127.966 155.75V155.5H130.391V155.75C130.124 155.75 129.891 155.867 129.691 156.1C129.507 156.317 129.357 156.567 129.241 156.85L124.091 169.575Z" fill="#F5D9AD"/>
<path d="M116.819 164.375C116.819 164.508 116.836 164.658 116.869 164.825C116.902 164.975 116.952 165.117 117.019 165.25C117.102 165.383 117.194 165.5 117.294 165.6C117.394 165.7 117.511 165.75 117.644 165.75V166H114.394V165.75C114.527 165.75 114.644 165.708 114.744 165.625C114.844 165.525 114.927 165.408 114.994 165.275C115.061 165.125 115.111 164.975 115.144 164.825C115.177 164.658 115.194 164.508 115.194 164.375V157.625L111.019 166.225L107.019 158.125V164.375C107.019 164.508 107.036 164.658 107.069 164.825C107.102 164.975 107.152 165.117 107.219 165.25C107.286 165.383 107.369 165.5 107.469 165.6C107.569 165.7 107.686 165.75 107.819 165.75V166H105.394V165.75C105.527 165.75 105.644 165.7 105.744 165.6C105.844 165.5 105.919 165.383 105.969 165.25C106.036 165.117 106.086 164.975 106.119 164.825C106.152 164.658 106.169 164.508 106.169 164.375V157.05C106.169 156.75 106.127 156.458 106.044 156.175C105.977 155.892 105.761 155.75 105.394 155.75V155.5H107.619L111.444 163.325L115.269 155.5H117.644V155.75C117.394 155.75 117.194 155.908 117.044 156.225C116.894 156.525 116.819 156.8 116.819 157.05V164.375Z" fill="#F5D9AD"/>
</svg>
