<svg width="164" height="191" viewBox="0 0 164 191" fill="none" xmlns="http://www.w3.org/2000/svg">
<path d="M138.808 15.0782L154.176 15.0782C154.176 15.0782 153.358 20.0855 156.359 23.4931C159.361 26.9006 164 26.2302 164 26.2302V165.29C164 165.29 159.072 165.308 156.359 168.387C153.647 171.467 154.176 176.442 154.176 176.442H153.903V176.493H137.916C123.702 185.445 103.893 191 81.9831 191C60.0732 191 40.2647 185.445 26.0502 176.493H9.82363C9.82363 176.493 10.6423 171.485 7.6406 168.078C4.63893 164.67 0 165.341 0 165.341V26.2811C0 26.2811 4.92788 26.2628 7.6406 23.1833C10.3533 20.1037 9.82363 15.1291 9.82363 15.1291H10.0965V15.0782L25.1587 15.0782C39.4303 5.79133 59.6113 0 81.9831 0C104.355 0 124.536 5.79133 138.808 15.0782Z" fill="white"/>
<mask id="path-2-inside-1_705_1100" fill="white">
<path d="M136.187 18.5963L150.703 18.5963C150.703 18.5963 149.921 22.8754 152.788 25.7874C155.655 28.6995 160.085 28.1266 160.085 28.1266V161.55C160.085 161.55 155.379 161.566 152.788 164.198C150.197 166.829 150.703 171.081 150.703 171.081H150.442V171.121H136.446C123.18 180.52 103.657 186.459 81.8882 186.459C60.1197 186.459 40.5962 180.52 27.3301 171.121H12.8352C12.8352 171.121 13.617 166.842 10.7502 163.93C7.88341 161.018 3.45288 161.591 3.45288 161.591V28.1672C3.45288 28.1672 8.15937 28.1516 10.7502 25.5199C13.3411 22.8882 12.8352 18.637 12.8352 18.637H13.0958V18.5963L27.5895 18.5963C40.85 9.30317 60.2612 3.44092 81.8882 3.44092C103.515 3.44092 122.926 9.30317 136.187 18.5963Z"/>
</mask>
<path d="M150.703 18.5963L151.321 18.7092L151.456 17.9682H150.703V18.5963ZM136.187 18.5963L135.826 19.1107L135.989 19.2245H136.187V18.5963ZM152.788 25.7874L153.235 25.3468V25.3468L152.788 25.7874ZM160.085 28.1266H160.713V27.412L160.005 27.5036L160.085 28.1266ZM160.085 161.55L160.087 162.178L160.713 162.176V161.55H160.085ZM150.703 171.081V171.709H151.41L151.327 171.006L150.703 171.081ZM150.442 171.081V170.452H149.814V171.081H150.442ZM150.442 171.121V171.749H151.07V171.121H150.442ZM136.446 171.121V170.493H136.246L136.083 170.609L136.446 171.121ZM27.3301 171.121L27.6932 170.609L27.5301 170.493H27.3301V171.121ZM12.8352 171.121L12.2173 171.008L12.0819 171.749H12.8352V171.121ZM10.7502 163.93L10.3026 164.371H10.3026L10.7502 163.93ZM3.45288 161.591H2.82475V162.306L3.53343 162.214L3.45288 161.591ZM3.45288 28.1672L3.4508 27.5391L2.82475 27.5412V28.1672H3.45288ZM10.7502 25.5199L10.3026 25.0793H10.3026L10.7502 25.5199ZM12.8352 18.637V18.0088H12.1279L12.2114 18.7112L12.8352 18.637ZM13.0958 18.637V19.2651H13.724V18.637H13.0958ZM13.0958 18.5963V17.9682H12.4677V18.5963H13.0958ZM27.5895 18.5963V19.2245H27.7877L27.95 19.1107L27.5895 18.5963ZM150.703 17.9682L136.187 17.9682V19.2245L150.703 19.2245V17.9682ZM153.235 25.3468C151.934 24.0248 151.448 22.3795 151.294 21.029C151.218 20.3564 151.226 19.7686 151.252 19.3504C151.266 19.1418 151.284 18.9767 151.298 18.866C151.305 18.8107 151.311 18.769 151.315 18.7424C151.317 18.7291 151.319 18.7196 151.32 18.714C151.32 18.7112 151.321 18.7094 151.321 18.7086C151.321 18.7082 151.321 18.708 151.321 18.7081C151.321 18.7082 151.321 18.7083 151.321 18.7085C151.321 18.7086 151.321 18.7088 151.321 18.7088C151.321 18.709 151.321 18.7092 150.703 18.5963C150.085 18.4834 150.085 18.4837 150.085 18.4839C150.085 18.4841 150.085 18.4843 150.085 18.4846C150.085 18.485 150.085 18.4855 150.085 18.4861C150.084 18.4872 150.084 18.4886 150.084 18.4903C150.083 18.4936 150.082 18.498 150.081 18.5034C150.08 18.5142 150.077 18.529 150.074 18.5478C150.068 18.5853 150.061 18.6384 150.052 18.7058C150.035 18.8404 150.014 19.0324 149.999 19.2704C149.968 19.7457 149.96 20.4096 150.046 21.1708C150.219 22.6878 150.775 24.638 152.34 26.2281L153.235 25.3468ZM160.085 28.1266C160.005 27.5036 160.005 27.5036 160.005 27.5036C160.005 27.5036 160.005 27.5035 160.005 27.5035C160.005 27.5035 160.006 27.5035 160.006 27.5035C160.006 27.5035 160.005 27.5035 160.005 27.5036C160.004 27.5037 160.002 27.5039 159.999 27.5043C159.993 27.505 159.983 27.5061 159.969 27.5076C159.941 27.5105 159.898 27.5148 159.84 27.5193C159.725 27.5284 159.553 27.5387 159.337 27.5426C158.904 27.5503 158.296 27.532 157.605 27.4279C156.215 27.2186 154.539 26.6709 153.235 25.3468L152.34 26.2281C153.903 27.816 155.876 28.4379 157.418 28.6701C158.193 28.7868 158.872 28.8073 159.359 28.7986C159.603 28.7943 159.8 28.7826 159.938 28.7717C160.008 28.7663 160.062 28.761 160.1 28.757C160.12 28.755 160.135 28.7533 160.146 28.752C160.151 28.7513 160.156 28.7508 160.159 28.7504C160.161 28.7502 160.162 28.75 160.163 28.7499C160.164 28.7498 160.164 28.7497 160.165 28.7497C160.165 28.7496 160.165 28.7496 160.165 28.7496C160.165 28.7496 160.166 28.7495 160.085 28.1266ZM160.713 161.55V28.1266H159.457V161.55H160.713ZM153.235 164.638C154.406 163.449 156.091 162.823 157.544 162.5C158.262 162.341 158.903 162.26 159.365 162.22C159.595 162.199 159.779 162.189 159.904 162.184C159.966 162.181 160.014 162.18 160.045 162.179C160.061 162.179 160.072 162.179 160.079 162.178C160.083 162.178 160.085 162.178 160.087 162.178C160.087 162.178 160.088 162.178 160.088 162.178C160.088 162.178 160.088 162.178 160.088 162.178C160.088 162.178 160.088 162.178 160.088 162.178C160.087 162.178 160.087 162.178 160.085 161.55C160.083 160.922 160.083 160.922 160.083 160.922C160.083 160.922 160.082 160.922 160.082 160.922C160.082 160.922 160.081 160.922 160.081 160.922C160.08 160.922 160.079 160.922 160.077 160.922C160.074 160.922 160.069 160.922 160.064 160.922C160.053 160.922 160.038 160.923 160.018 160.923C159.979 160.924 159.923 160.926 159.852 160.928C159.709 160.934 159.506 160.946 159.254 160.968C158.752 161.013 158.055 161.1 157.272 161.274C155.724 161.617 153.76 162.315 152.34 163.757L153.235 164.638ZM150.703 171.081C151.327 171.006 151.327 171.006 151.327 171.007C151.327 171.007 151.327 171.007 151.327 171.007C151.327 171.007 151.327 171.007 151.327 171.007C151.327 171.007 151.327 171.007 151.327 171.007C151.327 171.006 151.326 171.004 151.326 171.001C151.325 170.995 151.324 170.985 151.323 170.972C151.32 170.945 151.317 170.903 151.313 170.847C151.305 170.737 151.296 170.572 151.292 170.365C151.286 169.951 151.303 169.371 151.396 168.714C151.583 167.39 152.072 165.82 153.235 164.638L152.34 163.757C150.913 165.207 150.359 167.078 150.152 168.538C150.048 169.273 150.029 169.92 150.036 170.385C150.04 170.618 150.05 170.806 150.06 170.938C150.064 171.004 150.069 171.056 150.073 171.093C150.074 171.111 150.076 171.125 150.077 171.136C150.078 171.141 150.078 171.145 150.078 171.148C150.079 171.15 150.079 171.151 150.079 171.152C150.079 171.153 150.079 171.153 150.079 171.154C150.079 171.154 150.079 171.154 150.079 171.154C150.079 171.155 150.079 171.155 150.703 171.081ZM150.442 171.709H150.703V170.452H150.442V171.709ZM151.07 171.121V171.081H149.814V171.121H151.07ZM136.446 171.749H150.442V170.493H136.446V171.749ZM136.083 170.609C122.943 179.919 103.553 185.831 81.8882 185.831V187.087C103.761 187.087 123.418 181.122 136.809 171.634L136.083 170.609ZM81.8882 185.831C60.2236 185.831 40.8336 179.919 27.6932 170.609L26.967 171.634C40.3587 181.122 60.0158 187.087 81.8882 187.087V185.831ZM12.8352 171.749H27.3301V170.493H12.8352V171.749ZM10.3026 164.371C11.604 165.693 12.0902 167.338 12.2436 168.689C12.32 169.361 12.3124 169.949 12.2857 170.367C12.2724 170.576 12.2544 170.741 12.2402 170.851C12.2331 170.907 12.2269 170.948 12.2227 170.975C12.2206 170.988 12.219 170.998 12.2181 171.004C12.2176 171.006 12.2173 171.008 12.2172 171.009C12.2171 171.009 12.2171 171.009 12.2171 171.009C12.2171 171.009 12.2171 171.009 12.2171 171.009C12.2172 171.009 12.2172 171.009 12.2172 171.009C12.2172 171.008 12.2173 171.008 12.8352 171.121C13.4531 171.234 13.4531 171.234 13.4532 171.234C13.4532 171.233 13.4532 171.233 13.4533 171.233C13.4534 171.232 13.4535 171.232 13.4536 171.231C13.4538 171.23 13.454 171.229 13.4543 171.227C13.4549 171.224 13.4557 171.219 13.4566 171.214C13.4584 171.203 13.4609 171.188 13.4638 171.17C13.4697 171.132 13.4775 171.079 13.4862 171.012C13.5035 170.877 13.5242 170.685 13.5394 170.447C13.5697 169.972 13.5784 169.308 13.4919 168.547C13.3195 167.03 12.7632 165.079 11.1978 163.489L10.3026 164.371ZM3.45288 161.591C3.53343 162.214 3.53323 162.214 3.53304 162.214C3.533 162.214 3.53283 162.214 3.53275 162.214C3.53258 162.214 3.53249 162.214 3.53246 162.214C3.5324 162.214 3.5326 162.214 3.53307 162.214C3.534 162.214 3.53597 162.214 3.53897 162.213C3.54496 162.213 3.55504 162.211 3.56901 162.21C3.59697 162.207 3.6405 162.203 3.69815 162.198C3.81352 162.189 3.98502 162.179 4.20115 162.175C4.63427 162.167 5.24173 162.186 5.93296 162.29C7.3229 162.499 8.99904 163.047 10.3026 164.371L11.1978 163.489C9.6346 161.901 7.66207 161.28 6.12004 161.047C5.34528 160.931 4.66594 160.91 4.17874 160.919C3.93471 160.923 3.73768 160.935 3.59956 160.946C3.53046 160.951 3.476 160.956 3.43766 160.961C3.41849 160.963 3.40334 160.964 3.39239 160.966C3.38691 160.966 3.38249 160.967 3.37914 160.967C3.37746 160.967 3.37606 160.968 3.37492 160.968C3.37435 160.968 3.37385 160.968 3.37342 160.968C3.3732 160.968 3.37293 160.968 3.37282 160.968C3.37257 160.968 3.37233 160.968 3.45288 161.591ZM2.82475 28.1672V161.591H4.08101V28.1672H2.82475ZM10.3026 25.0793C9.13167 26.2687 7.44661 26.895 5.99395 27.2172C5.27608 27.3765 4.6346 27.4572 4.17344 27.498C3.94326 27.5183 3.75908 27.5286 3.63406 27.5338C3.57157 27.5364 3.52395 27.5377 3.49283 27.5384C3.47728 27.5387 3.46586 27.5389 3.45878 27.539C3.45525 27.5391 3.45279 27.5391 3.45146 27.5391C3.45079 27.5391 3.45039 27.5391 3.45028 27.5391C3.45023 27.5391 3.45024 27.5391 3.45033 27.5391C3.45037 27.5391 3.45049 27.5391 3.45051 27.5391C3.45065 27.5391 3.4508 27.5391 3.45288 28.1672C3.45496 28.7954 3.45515 28.7954 3.45536 28.7954C3.45545 28.7953 3.45568 28.7953 3.45586 28.7953C3.45623 28.7953 3.45668 28.7953 3.45719 28.7953C3.45823 28.7953 3.45955 28.7953 3.46115 28.7953C3.46435 28.7953 3.46869 28.7952 3.47414 28.7952C3.48503 28.795 3.50036 28.7948 3.51991 28.7944C3.559 28.7935 3.61502 28.792 3.68629 28.789C3.82877 28.7831 4.03252 28.7716 4.28406 28.7494C4.78633 28.705 5.48341 28.6173 6.26602 28.4437C7.81431 28.1002 9.77793 27.4029 11.1978 25.9606L10.3026 25.0793ZM12.8352 18.637C12.2114 18.7112 12.2114 18.711 12.2114 18.7108C12.2114 18.7108 12.2114 18.7106 12.2114 18.7106C12.2114 18.7104 12.2113 18.7103 12.2113 18.7103C12.2113 18.7103 12.2114 18.7105 12.2114 18.711C12.2115 18.7119 12.2117 18.7138 12.2121 18.7168C12.2127 18.7226 12.2137 18.7323 12.215 18.7458C12.2176 18.7728 12.2214 18.8147 12.2254 18.8701C12.2334 18.9809 12.2424 19.1454 12.2457 19.3523C12.2522 19.7669 12.2355 20.3469 12.1424 21.0034C11.9546 22.3276 11.4659 23.8976 10.3026 25.0793L11.1978 25.9606C12.6254 24.5106 13.1792 22.639 13.3862 21.1798C13.4905 20.4445 13.5091 19.7972 13.5018 19.3324C13.4981 19.0996 13.4879 18.9114 13.4784 18.7795C13.4736 18.7135 13.469 18.6615 13.4654 18.6249C13.4637 18.6066 13.4622 18.5922 13.461 18.5818C13.4605 18.5765 13.46 18.5723 13.4597 18.5692C13.4595 18.5676 13.4593 18.5662 13.4592 18.5652C13.4591 18.5646 13.4591 18.5642 13.459 18.5638C13.459 18.5636 13.459 18.5633 13.459 18.5632C13.4589 18.563 13.4589 18.5628 12.8352 18.637ZM13.0958 18.0088H12.8352V19.2651H13.0958V18.0088ZM12.4677 18.5963V18.637H13.724V18.5963H12.4677ZM27.5895 17.9682L13.0958 17.9682V19.2245L27.5895 19.2245V17.9682ZM27.95 19.1107C41.0857 9.90501 60.3646 4.06905 81.8882 4.06905V2.81278C60.1577 2.81278 40.6143 8.70132 27.229 18.0819L27.95 19.1107ZM81.8882 4.06905C103.412 4.06905 122.691 9.90502 135.826 19.1107L136.547 18.0819C123.162 8.70133 103.619 2.81278 81.8882 2.81278V4.06905Z" fill="#333E2C" mask="url(#path-2-inside-1_705_1100)"/>
</svg>
